# xmcd
# 
# Track frame offsets:
#     150
#     21412
#     44512
#     63675
#     86575
#     108350
#     112625
#     138150
#     159962
#     177075
#     196712
#     220575
# 
# Disc length: 3097
# 
# Revision: 2
# Processed by: cddbd v1.5.2PL0 Copyright (c) Steve Scherf et al.
# Submitted via: BonkEnc v1.0
# 
DISCID=950c170c
DTITLE=林憶蓮 - 回來愛的身邊
DYEAR=1992
DGENRE=Pop
TTITLE0=醒醒
TTITLE1=沒結果
TTITLE2=由你開始
TTITLE3=回來愛的身邊
TTITLE4=躱起來
TTITLE5=要是有缘 (音樂)
TTITLE6=寵愛
TTITLE7=暖暖紅塵
TTITLE8=始終一天
TTITLE9=愛的世界
TTITLE10=不捨不棄
TTITLE11=回到愛的世界 (音樂)
EXTD=
EXTT0=
EXTT1=
EXTT2=
EXTT3=
EXTT4=
EXTT5=
EXTT6=
EXTT7=
EXTT8=
EXTT9=
EXTT10=
EXTT11=
PLAYORDER=
